<svg id="Capa_1" data-name="Capa 1" xmlns="http://www.w3.org/2000/svg" viewBox="0 0 340.04 74.1"><defs><style>.cls-1{fill:#ffbf00;}.cls-2{fill:#ad0475;}.cls-3{fill:#ff444e;}.cls-4{fill:#ffd01c;}.cls-5{fill:#fa8b0f;}</style></defs><title>boom-news</title><path class="cls-1" d="M70.58,49.11c0,5.43-4.55,10.47-11.42,10.47H44.53V25.29H55.8c6.21,0,10.76,4.19,10.76,8.91,0,3.53-2.34,6.06-3.74,6.06C66.48,40.26,70.58,43.94,70.58,49.11ZM55.52,33.2H53.29v5.38h2.17c2,0,3.47-1,3.47-2.74S57.48,33.2,55.52,33.2ZM61.86,48c0-2-1.44-3.21-4-3.21l-4.55,0v6.5h4.49C59.86,51.3,61.86,50.28,61.86,48Z"/><path class="cls-1" d="M72.53,42.48c0-10.3,8.17-18.11,18.83-18.11s18.82,7.81,18.82,18.11-8.17,18-18.85,18S72.53,52.69,72.53,42.48Z"/><path class="cls-1" d="M101,42.41a9.62,9.62,0,1,0-9.61,9.34A9.35,9.35,0,0,0,101,42.41Z"/><path class="cls-1" d="M112.72,42.48c0-10.3,8.17-18.11,18.83-18.11s18.82,7.81,18.82,18.11-8.16,18-18.84,18S112.72,52.69,112.72,42.48Z"/><path class="cls-1" d="M141.16,42.41a9.62,9.62,0,1,0-9.61,9.34A9.35,9.35,0,0,0,141.16,42.41Z"/><path class="cls-1" d="M191.16,25V59.58h-9.1V46l-9.23,13h-.07l-9.25-13V59.58h-9.1V25h3.65l14.72,20.17L187.5,25Z"/><path class="cls-1" d="M239.17,25.25V59.92h-2.89L218.65,42.84V59.6h-9.11V25h2.94l17.57,17V25.25Z"/><path class="cls-1" d="M253.69,33.76v4.78h10.89v7.6H253.69v4.91h13.23v8.53H244.69V25.29h22.23v8.47Z"/><path class="cls-1" d="M269,25.29h9.85L283.61,41l7-15.64h.68l7,15.6,4.72-15.66h9.85l-11.44,34.5H299l-8-16.95-8,16.95h-2.49Z"/><path class="cls-1" d="M312.4,53.77l5.51-5.4a8.36,8.36,0,0,0,6.95,3.38c1.94,0,3.83-.7,3.83-2.1,0-1.77-3.51-3.32-6.87-4.81-4.34-1.87-8.06-4.72-8.06-9.89,0-5.94,5.64-10.17,12.15-10.17,5.23,0,9.31,2.47,10.65,5.85l-5.25,5.06c-1-1.81-3.66-2.59-5.3-2.59-1.87,0-3.21.95-3.21,2.12,0,1.58,2.43,2.09,6.13,3.64,5.36,2.26,8.91,5.53,8.91,10.59,0,6.53-6.08,10.6-12.95,10.6C319.25,60.05,314.12,57.56,312.4,53.77Z"/><path class="cls-2" d="M31.51,27.8c-4.45,3.58-7.93,6.67-10.39,8.94a55.53,55.53,0,0,0-4.57,4.57A55.65,55.65,0,0,0,11.15,49c-2.49,4.16-2.23,7.95-1,14.75,0-1.73-.34-5.79.42-8.52a23.55,23.55,0,0,1,3.73-7.68,20.34,20.34,0,0,0-2.9,8.93,14.49,14.49,0,0,0,.41,5.61c1.76,5.6,8,9,13.09,9.76A18.65,18.65,0,0,0,36.07,70a16.57,16.57,0,0,1-6,0,17.25,17.25,0,0,1-10-6A15.64,15.64,0,0,1,18,46.71a35.38,35.38,0,0,1,5.61-9.35c1-1.17,2.13-2.33,4.16-4.78C29.4,30.61,30.67,28.93,31.51,27.8Z"/><path class="cls-3" d="M36.28,7.86a12,12,0,0,1,0,8.31c-.37,1-1.14,2.53-3.94,5.2a44.69,44.69,0,0,1-8.31,6,68.7,68.7,0,0,0-13.09,10C6.48,42,3.83,46.71,4.09,46.91s2.43-2.81,6.44-6.43a63.75,63.75,0,0,1,9.34-6.65,34.76,34.76,0,0,0-10,8.72,22.29,22.29,0,0,0-3.74,7.06C5.78,50.92,3.7,58,7.62,64a15.54,15.54,0,0,0,4.57,4.36c7.15,5,15.27,4.07,17.45,3.74a24.24,24.24,0,0,0,2.9-.63,19.37,19.37,0,0,1-3.94.42,20.54,20.54,0,0,1-5-.62,16.87,16.87,0,0,1-7.89-4,13.27,13.27,0,0,1-4-6.23,14.89,14.89,0,0,1,.63-8.73,20.48,20.48,0,0,1,2.28-5,16.65,16.65,0,0,0-4.57,13.92,18.85,18.85,0,0,1-.21-8.52c.8-3.72,3.4-6,5.4-8.72a42.2,42.2,0,0,1,7.27-7.69c3.66-3.2,4.28-4,7.9-7.48a29.28,29.28,0,0,0,4.77-5.4,19.62,19.62,0,0,0,3.12-6.64,13.87,13.87,0,0,0-2.08-8.94Z"/><path class="cls-4" d="M30.47,2.26a14.9,14.9,0,0,1,.83,7.89c-.49,2.67-1.78,5.11-7.06,10.59A116.12,116.12,0,0,1,12.81,31.13l8.52-6.86A24.33,24.33,0,0,0,26.52,22a26.85,26.85,0,0,0,6-4.95c2.35-2.42,2.77-3.52,2.92-4a8.11,8.11,0,0,0,.21-4.16,9,9,0,0,0-2.49-4.57Z"/><path class="cls-5" d="M8.66,34.66a25.49,25.49,0,0,0-2,3A20.13,20.13,0,0,0,2.84,50a31.16,31.16,0,0,0,1,7.06A18.26,18.26,0,0,0,9.07,65.4,17.08,17.08,0,0,1,6,57.51a19.63,19.63,0,0,1,.41-7.27c1.74-7.22,7.28-11.7,9.76-13.71a34.12,34.12,0,0,1,4.57-3.12A45.31,45.31,0,0,0,4.5,46.71c3.31-6.33,6.44-9.61,9.35-11.84.21-.16-.66,0,7.89-5.82,2.49-1.7,6.12-4,8.64-5.62a22.08,22.08,0,0,0,3.83-2.9,11,11,0,0,0,3.32-4.77,9.19,9.19,0,0,0-.21-5.61,12,12,0,0,0-1.87-3.53,12.26,12.26,0,0,0-2.28-2.29,8.38,8.38,0,0,1,2.49,5.82c-.08,2.59-1.66,4.36-3.32,6.23s-3.32,2.88-6.65,5c-7.74,4.89-7.25,4.53-7.89,5C12,30.43,9.61,33.39,8.66,34.66Z"/></svg>