<svg id="Capa_1" data-name="Capa 1" xmlns="http://www.w3.org/2000/svg" viewBox="0 0 345.31 345.31"><defs><style>.cls-1{fill:#fff;}</style></defs><title>igB</title><path class="cls-1" d="M183.88,333.64H161.25c-3.71-.48-7.43-.91-11.13-1.46-29.18-4.31-55.48-15.41-78.37-34.06-30.94-25.22-50.28-57.45-57.57-96.77-1.06-5.74-1.71-11.55-2.55-17.33V161.39c.26-2,.55-3.91.77-5.87,3-25.88,11.16-50,25.89-71.51C68.53,39.83,110.53,15.5,164,12c31.76-2.08,61.57,5.49,89.29,21.35,57.49,32.9,89.49,100.52,78.17,165.74-6.3,36.27-22.89,67.06-49.94,92a157.06,157.06,0,0,1-80.61,40C195.24,332.15,189.55,332.82,183.88,333.64Zm80.48-160.92h1.06c-.55-15.07-.8-30.15-1.76-45.19a48.78,48.78,0,0,0-10.26-27.2C242.7,86.56,227.87,81.51,211.23,81q-25.59-.83-51.21-.57c-12.33.13-24.8.14-37,2-19.76,3-33.18,14.41-39.35,33.76-2.57,8.08-3.18,16.43-3.12,24.81.17,25.65.2,51.31.91,76.95.27,10,4,19.19,10.21,27.19,10.7,13.75,25.52,19,42.16,19.32,25.75.44,51.53.33,77.29,0,12.11-.15,23.62-3.13,33.5-10.71,13.81-10.61,19-25.38,19.6-42C264.73,198.71,264.36,185.71,264.36,172.72Z"/><path class="cls-1" d="M96.3,172.73c.49-14.45.67-28.9,1.57-43.31,1.1-17.74,13.59-30.77,31.27-31.31,27.3-.83,54.63-.68,82-.58,8.09,0,16,1.85,22.82,6.75a31.23,31.23,0,0,1,13.29,25.23c.74,23.11.88,46.26.89,69.39a108.83,108.83,0,0,1-2,22.75c-3.32,15.41-14.59,25.14-30.33,25.69-23.32.82-46.67.87-70,.88a106.41,106.41,0,0,1-22.42-2C108.14,242.92,98.8,231.7,97.86,216,97,201.63,96.79,187.18,96.3,172.73Zm76.12-47.33a47.31,47.31,0,1,0,47.45,47.08A47,47,0,0,0,172.42,125.4Zm49.48,9a11,11,0,1,0-11-10.93A11.08,11.08,0,0,0,221.9,134.39Z"/><path class="cls-1" d="M203.35,172.94a30.79,30.79,0,1,1-30.39-31A30.65,30.65,0,0,1,203.35,172.94Z"/></svg>