<svg id="Capa_1" data-name="Capa 1" xmlns="http://www.w3.org/2000/svg" viewBox="0 0 345.31 345.31"><defs><style>.cls-1{fill:#fff;}</style></defs><title>youtubeB</title><path class="cls-1" d="M164.11,13.89h19.61a18.59,18.59,0,0,0,2.44.52c24.33,1.83,47.19,8.63,68.15,21.09,43.06,25.61,69.47,63.08,78.75,112.42,1.1,5.88,1.67,11.86,2.48,17.79v19.61c-.18,1-.38,2-.54,3-1.3,8.31-2,16.76-4,24.92-23,97.06-127.89,150.46-219.74,112C41.2,295.88,1.36,223.09,14.14,147.74c11-65,62.68-118,127.5-130.61C149.06,15.69,156.62,15,164.11,13.89Zm9.58,101.05H123.1a46,46,0,0,0-7.87.47c-15.52,2.8-26.51,15.19-26.79,31.07-.36,19.59-.11,39.2,0,58.8a27.47,27.47,0,0,0,.82,6.25c3.45,14.69,15.48,24.93,30.55,25,35.94.23,71.88.07,107.81,0a24.9,24.9,0,0,0,4.4-.38c15.63-2.88,26.56-15.33,26.81-31.41.31-19.39.1-38.78,0-58.18A29.63,29.63,0,0,0,258,140c-3.61-15.36-16-25-32.44-25.13C208.25,114.87,191,115,173.69,114.94Z"/><path class="cls-1" d="M151.44,149.86l44.63,26-44.63,25.9Z"/></svg>