<svg id="Capa_1" data-name="Capa 1" xmlns="http://www.w3.org/2000/svg" viewBox="0 0 345.31 345.31"><defs><style>.cls-1{fill:#fff;}</style></defs><title>fbB-02</title><path class="cls-1" d="M187.12,336.06H164.48c-3.6-.47-7.22-.87-10.82-1.42-42.55-6.49-77.73-26.19-104.18-60.13-32.18-41.27-42.3-88-29.57-138.75,12.19-48.6,41.92-83.83,86.8-105.9,30.29-14.9,62.46-19,95.68-13.53a156,156,0,0,1,79.15,37.59c28.21,24.86,45.93,55.8,52.67,92.88,1,5.64,1.69,11.34,2.53,17v22.63c-.47,3.61-.9,7.22-1.43,10.82-4.68,32-17.52,60.27-39,84.4-24.75,27.79-55.49,45.22-92.19,51.89C198.47,334.58,192.78,335.24,187.12,336.06ZM151,180.81v92.94h38.79V180.67h26c1.12-11,2.22-21.66,3.36-32.75H189.65c0-1.31,0-2.23,0-3.15,0-6.08-.12-12.16.11-18.22.15-3.75,2.48-6.24,6.22-6.85a53.63,53.63,0,0,1,8.13-.35c4.77,0,9.54,0,14.35,0V87.8a8.27,8.27,0,0,0-1.33-.23c-10.68,0-21.37-.27-32,.15-17.55.7-30.6,12.07-33.1,29.47-1.27,8.85-.8,17.95-1.13,26.93,0,1.2-.15,2.4-.24,3.95h-18v32.74Z"/></svg>