<svg id="Capa_1" data-name="Capa 1" xmlns="http://www.w3.org/2000/svg" viewBox="0 0 345.31 345.31"><defs><style>.cls-1{fill:#fff;}</style></defs><title>twB</title><path class="cls-1" d="M186.64,334.5h-22a21.72,21.72,0,0,0-2.73-.57,155.28,155.28,0,0,1-40.64-8.76C49.58,299.7,5.27,226.9,15.81,151.64c4.07-29.1,14.87-55.59,33.66-78.26C88,26.89,137.72,7.2,197.61,14.18c26.77,3.12,51.1,13.36,72.73,29.49,34.29,25.57,55.59,59.4,63.4,101.56,1.05,5.63,1.69,11.34,2.52,17v22.63c-.21.9-.5,1.79-.62,2.7-.71,5.28-1.09,10.62-2.13,15.84-7.1,36-24.14,66.39-51.61,90.73a157.6,157.6,0,0,1-82.31,38.48C195.27,333.29,191,333.88,186.64,334.5Zm-114-95.05c.26.56.3.79.43.87,1,.63,1.92,1.27,2.92,1.84a119.06,119.06,0,0,0,53.26,15.89c23.18,1.3,45.48-2.43,65.67-14,42.23-24.3,62.29-61.78,63.26-110a5.24,5.24,0,0,1,2.28-4.67,79.58,79.58,0,0,0,18.28-19.43L256.14,116l-.4-.87c8.39-5.52,14.4-12.83,17.37-21.66-7.86,2.74-15.91,5.54-24,8.39-1.8.64-3,.13-4.37-1.2a42.62,42.62,0,0,0-48-7.5,43.13,43.13,0,0,0-23.9,42.47c.17,1.82.44,3.64.71,5.8C137.74,138.85,108.63,124,85.71,97c-4,5.78-6.53,15.55-5.91,23.51,1.07,13.66,7.07,24.69,18.29,32.85l-.54,1-17.93-4.83a40.92,40.92,0,0,0,9.26,26.16c6.12,7.78,14.22,12.58,23.78,15.1l-.15.93H94.29c7.22,18.33,20.23,27.93,39.75,30C115.51,235.66,95.23,241.26,72.66,239.45Z"/></svg>