<svg id="Capa_1" data-name="Capa 1" xmlns="http://www.w3.org/2000/svg" viewBox="0 0 345.31 345.31"><defs><style>.cls-1{fill:#fff;}</style></defs><title>twichB</title><path class="cls-1" d="M137,335.81H95a6.86,6.86,0,0,0,.22-1.2V296.25a12.86,12.86,0,0,0-.29-1.86H19.37V290q0-103.32-.07-206.65a47.93,47.93,0,0,1,3.2-18c6-15.35,11.67-30.8,17.5-46.2H322.83c.05,1.09.14,2,.14,2.92q0,93.57-.08,187.15a7.08,7.08,0,0,1-1.89,4.53q-39.33,39.42-78.78,78.71a6.26,6.26,0,0,1-4.86,2q-28.31-.1-56.61,0a7.1,7.1,0,0,0-4.5,1.86c-12.63,12.45-25.14,25-37.67,37.57A22.38,22.38,0,0,0,137,335.81Zm-7.33-48.34c1.51-1.43,2.33-2.19,3.12-3q18.08-18,36.11-36.09a6.87,6.87,0,0,1,5.37-2.26q35,.13,69.92,0a7.59,7.59,0,0,0,4.8-1.92c14.84-14.61,29.53-29.38,44.33-44a6.5,6.5,0,0,0,2.1-5.13q-.09-72.54-.05-145.09v-3.3H67.83V246.23H129.7Z"/><path class="cls-1" d="M219.62,101.87h27.29V184H219.62Z"/><path class="cls-1" d="M171,101.86v82.23H143.81V101.86Z"/></svg>